<svg xmlns="http://www.w3.org/2000/svg" version="1.1" xmlns:xlink="http://www.w3.org/1999/xlink" xmlns:svgjs="http://svgjs.com/svgjs" width="137.000000pt" height="119.000000pt"><svg version="1.0" xmlns="http://www.w3.org/2000/svg" width="137.000000pt" height="119.000000pt" viewBox="0 0 137.000000 119.000000" preserveAspectRatio="xMidYMid meet">

<g transform="translate(0.000000,119.000000) scale(0.100000,-0.100000)" fill="#000000" stroke="none">
<path d="M897 1160 c-49 -15 -95 -58 -122 -115 -25 -50 -27 -63 -23 -143 3
-74 9 -96 32 -136 31 -54 104 -106 148 -106 15 0 28 -5 28 -10 0 -17 -101
-108 -170 -154 -112 -75 -333 -146 -451 -146 -169 0 -259 59 -259 171 0 60 32
101 97 123 52 18 148 21 187 6 20 -7 24 -6 19 6 -20 52 -175 66 -259 23 -107
-55 -141 -170 -81 -272 88 -150 377 -168 672 -41 108 46 185 96 253 163 l52
52 0 -159 c0 -131 3 -161 15 -165 21 -9 54 -79 69 -150 13 -57 14 -39 15 250
l1 311 34 12 c82 27 157 98 195 185 11 26 6 23 -43 -23 -48 -46 -146 -102
-176 -102 -6 0 -10 43 -10 103 l-1 102 -20 -27 c-64 -86 -85 -93 -45 -15 22
44 22 47 5 47 -11 0 -19 -7 -19 -15 0 -8 -5 -26 -12 -40 l-12 -26 -13 32 c-11
26 -11 34 -1 41 8 5 -2 8 -24 8 -41 0 -43 -2 -28 -31 7 -13 8 -25 1 -37 -8
-15 -11 -14 -20 11 -6 16 -11 35 -11 43 0 9 -11 14 -30 14 -30 0 -31 1 -24 38
10 57 21 81 50 107 47 44 136 29 183 -31 l21 -27 0 59 0 59 -42 1 c-24 0 -68
3 -98 7 -30 3 -68 2 -83 -3z m39 -350 c3 0 10 14 15 30 14 38 23 38 39 0 7
-16 16 -27 21 -24 5 3 9 -18 9 -45 0 -48 -2 -51 -25 -51 -44 0 -93 27 -110 59
-9 18 -18 62 -21 99 l-5 67 36 -67 c19 -38 38 -68 41 -68z"></path>
</g>
</svg><style>@media (prefers-color-scheme: light) { :root { filter: none; } }
@media (prefers-color-scheme: dark) { :root { filter: invert(100%); } }
</style></svg>