<?xml version="1.0" encoding="utf-8"?><!--Generator: Adobe Illustrator 23.0.0, SVG Export Plug-In . SVG Version: 6.00 Build 0)--><svg version="1.1" id="Layer_1" xmlns="http://www.w3.org/2000/svg" xmlns:xlink="http://www.w3.org/1999/xlink" x="0px" y="0px" viewBox="0 0 1680.5 828.8" style="enable-background:new 0 0 1680.5 828.8;" xml:space="preserve"><style type="text/css">.st0{display:none;}
	.st1{display:inline;stroke:#000000;stroke-miterlimit:10;}
	.st2{stroke:#000000;stroke-miterlimit:10;}
	.st3{fill:#B3B3B3;stroke:#000000;stroke-miterlimit:10;}
	.st4{fill:none;stroke:#000000;stroke-miterlimit:10;}
	.st5{fill:none;stroke:#6A41FF;stroke-miterlimit:10;}
	.st6{stroke:#6A41FF;stroke-miterlimit:10;}</style><g class="st0"><path class="st1" d="M611.7,97.3"/><path class="st1" d="M562.7,218.3"/><image style="display:inline;overflow:visible;enable-background:new    ;" width="3484" height="1365" xlink:href="5D7D15E9.png" transform="matrix(0.4822 0 0 0.6066 0.1924 0.7791)"/></g><g id="Layer_3"><path class="st2" d="M609.7,142.3c0,459,0.4,664.3,1,680c0,0.5,0.2,6,0,6c-0.5,0-2.4-27-6-59c-2.5-22.4-4.5-39.9-9-63
		c-4.3-22.3-7.3-37.2-15-56c-3.4-8.3-7-22.8-19-36c-2-2.2-3.8-3.9-5-5c0-69.3,0-138.7,0-208c-1.6,2.8-4.4,7.4-8,13
		c-64.7,100-243.8,172.9-244,173l0,0c-5.1,2.1-10,3.9-15.3,5.6c-26.7,8.8-47.7,12.2-69.7,15.4c-23.1,3.4-36.6,5.3-56,5
		c-14.4-0.3-26.4-1.7-35-3c-8.9-1.6-20.8-4.4-34-10c-22.4-9.4-37.1-21.7-42-26c-6.5-5.7-31.5-28.6-44-66l0,0
		c-2.4-6.7-14.4-41.6-4-85c3.2-13.1,17.2-71.6,72-97c50.1-23.2,108.9-7.2,117,9c1.2,2.3,6.2,14.7,18,27c1.2,1.3,2.3,2.3,3,3
		c-3.4-2.5-8.5-5.9-15-9c-13.4-6.4-25-8.1-32-9c-10.1-1.3-17.9-1.1-21-1c-16.5,0.6-28.6,4.4-37,7c-6.7,2.1-13.5,4.3-22,9
		s-14.2,9.5-16,11c-2.8,2.4-14.8,12.9-23,30c-10.6,21.9-9,42.5-8,54c0.9,10.2,4.4,50.6,36,78c14.3,12.4,31.2,19.5,55,24
		c76.2,14.5,145.4-12.4,182-27c0,0,82.9-33.2,141-90c21.9-21.4,44-49,44-49c11.9-14.8,21.2-28,28-38c-10.8-1-29.6-4.1-49-16
		c-5-3.1-20.9-13.3-37-37c-29.2-42.8-31.4-88.6-33-120c-1-21-0.4-51.7,9-86c6.1-22.3,12.8-34.8,18-43c5.1-8.1,14-21.9,31-34
		c5.9-4.2,18.6-12.4,37-17c0,0,23.5-5.1,50,2c3.3,0.9,7,2,7,2c6.4,1.9,11.7,3.8,15,5c7,2.6,6,2.5,8,3c3.3,0.8,9.1,2.2,15,0
		c2.3-0.9,4.6-2.6,9-6c2.6-2,4.6-3.7,6-5c0,33,0,66,0,99c-0.9-3-2.2-7.2-4-12c-2.4-6.3-4-10.8-7-16c-4.9-8.7-10.5-14.4-15-19
		c-3.3-3.3-5.8-6-10-9c-7.2-5.2-13.6-7.7-17-9c-6.7-2.5-12.1-3.5-15-4c-3.9-0.7-6.9-1.2-11-1c-5.3,0.2-9.2,1.4-11,2
		c-2,0.6-11.3,3.7-22,14c-3.7,3.5-12.4,12.6-19,28c-2.8,6.5-5.3,14.2-8,35c-0.9,6.6-4,31.6-4,66c0,12.2,0.4,25.2,2,40
		c0.9,8.1,1.7,13.2,2,15c1.5,9.2,3.3,19.6,8,32c3.5,9.2,6.2,16.4,13,24c1,1.2,5.6,6.2,13,11c3,1.9,6.7,4.3,12,6
		c3.9,1.3,7.2,1.7,11,2c5.8,0.5,14.6,0.8,26,0c0-28.7,0-57.3,0-86c2.2-1.2,5-2.8,8-5c4.4-3.2,7.3-6.2,8-7c1.7-1.8,3.5-4.1,8-11
		c3.6-5.4,5.8-9.5,10-17c2.8-5.1,4.7-8.7,7-13c5.6-10.7,7.3-14.4,8-16C607.5,148.1,608.9,144.6,609.7,142.3z"/><path class="st3" d="M240.7,384.3"/><path class="st2" d="M610.2,298.8c15.5-4.7,34.4-12.4,54-25c47.2-30.5,70.7-72.1,81-94c-0.5,6.5-1.8,16.4-5,28
		c-4.8,17.2-11.5,29.6-20,45c-7,12.7-10.6,19.3-17,28c-16.5,22.6-34.5,36.1-43,42c-16.7,11.5-31.5,17.5-38,20c-4.8,1.8-8.9,3.1-12,4
		C610.2,330.8,610.2,314.8,610.2,298.8z"/><g><g><path d="M840.7,213.3c-1.3-13.1-2.7-28-11-45c-7.3-15-15.9-23.9-18-26c-3.7-3.7-10-9.9-20-15c-13.7-7-26.1-7.5-37-8
				c-6.7-0.3-15.6-0.6-27,2c-13.1,3-22.2,8.3-25,10c-6.9,4.2-17.5,12-26,25c-6.8,10.4-9.2,19.3-12,30c-5.2,19.8-5.1,36-5,47
				c0.1,10.8,0.3,22.8,4,38c3.6,14.7,7.5,30.8,21,46c17.2,19.3,38.7,24.6,45,26c23.8,5.5,42.8-0.6,50-3c6.1-2,16.9-5.8,28-15
				c15.6-13,21.8-28.6,25-37c4.3-11.2,5.4-19.9,7-33C840.8,246.3,842.5,232,840.7,213.3z M787.7,249.3c-2.6,28-8.3,43.3-11,50
				c-4.7,11.5-9.1,17.8-16,21c-1.5,0.7-7,3.2-14,2s-11.4-5.4-14-8c-5.2-5.2-7.3-10.7-10-18c-3.3-9.1-4.6-16.4-5-19
				c-2.2-13.2-4.9-29.7-4-53c0.6-14.7,2.3-24.9,4-35c2.7-16.1,5.2-23.2,9-30c3.6-6.4,7.3-12.7,15-16c1.2-0.5,10.5-4.3,20,0
				c1.7,0.8,5.6,2.8,11,10c6.2,8.2,9.6,16.9,12,26c3.3,12.4,3.6,22,4,35C789.2,231.9,788.1,245.4,787.7,249.3z"/></g><g><path class="st4" d="M840.7,213.3c-1.3-13.1-2.7-28-11-45c-7.3-15-15.9-23.9-18-26c-3.7-3.7-10-9.9-20-15c-13.7-7-26.1-7.5-37-8
				c-6.7-0.3-15.6-0.6-27,2c-13.1,3-22.2,8.3-25,10c-6.9,4.2-17.5,12-26,25c-6.8,10.4-9.2,19.3-12,30c-5.2,19.8-5.1,36-5,47
				c0.1,10.8,0.3,22.8,4,38c3.6,14.7,7.5,30.8,21,46c17.2,19.3,38.7,24.6,45,26c23.8,5.5,42.8-0.6,50-3c6.1-2,16.9-5.8,28-15
				c15.6-13,21.8-28.6,25-37c4.3-11.2,5.4-19.9,7-33C840.8,246.3,842.5,232,840.7,213.3z M787.7,249.3c-2.6,28-8.3,43.3-11,50
				c-4.7,11.5-9.1,17.8-16,21c-1.5,0.7-7,3.2-14,2s-11.4-5.4-14-8c-5.2-5.2-7.3-10.7-10-18c-3.3-9.1-4.6-16.4-5-19
				c-2.2-13.2-4.9-29.7-4-53c0.6-14.7,2.3-24.9,4-35c2.7-16.1,5.2-23.2,9-30c3.6-6.4,7.3-12.7,15-16c1.2-0.5,10.5-4.3,20,0
				c1.7,0.8,5.6,2.8,11,10c6.2,8.2,9.6,16.9,12,26c3.3,12.4,3.6,22,4,35C789.2,231.9,788.1,245.4,787.7,249.3z"/></g></g><path class="st5" d="M827.7,131.3"/><path class="st2" d="M812.7,142.3c3.3-2.9,6.4-5.2,9-7c2.7-1.8,7-4.6,12-7c4.1-1.9,7.3-3.1,10-4c4-1.4,10.8-3.7,20-5
		c6-0.9,10.5-0.9,15-1c7.9-0.1,11.9-0.2,17,1c3.6,0.8,8.7,2.1,14,6c6,4.4,8.8,9.7,10,12c2,3.8,3,7.9,5,16c0.9,3.7,1.6,6.9,2,9
		c2.1-6.9,4.8-12.3,7-16c4.4-7.3,8.9-11.9,14-17c3.5-3.5,5.4-4.9,7-6c0.9-0.6,5.1-3.2,12-5c3.8-1,11.4-2.8,21-1
		c3.4,0.6,13.6,2.7,22,11c3.8,3.7,5.8,7.4,9,13c2.5,4.5,4.5,9,8,17c1.3,2.9,2.3,5.3,3,7c0.7-3.3,1.8-7.9,4-13
		c5.2-12.3,12.5-19.5,14-21c2.3-2.3,6.8-6.5,14-10c5.5-2.6,10.1-3.6,12-4c4.8-0.9,19.9-3,34,6c5.8,3.7,9.3,7.9,11,10
		c5.8,7.1,8,14,10,20c2.5,7.8,3.2,14.1,4,21c0.7,6.7,0.9,11.6,1,18c0.1,5.2,0,7.4,0,23c0,0,0,1.4,0,8c0,11.2,0.3,41.4,1,82
		c0.2,1.3,0.5,3,1,5c0.6,2.2,2.1,7.6,6,13c2.5,3.4,4.9,5.5,9,9c1.5,1.3,4,3.3,6,5c0.3,0.3,0.7,0.7,1,1c-31.3,0-62.7,0-94,0
		c1.5-0.6,3.6-1.6,6-3c3.7-2.2,6.5-3.8,9-7c2.1-2.6,3-5.2,4-8c0.3-0.9,1.2-3.5,2-8c0.6-3.4,1.1-8.2,1-14c0-33,0-66,0-99
		c-0.2-5-0.6-9.1-1-12c-2-15.2-5.7-20.4-7-22c-1.7-2.2-3.3-3.5-4-4c-1.1-0.8-4.3-3.1-9-4c-1.3-0.2-6.2-1.1-12,1c-1,0.4-5.9,2.2-10,7
		c-3,3.5-4.3,7.1-6,12c-0.7,2.1-1.1,3.7-2,7c-0.8,3.2-2.2,8.3-3,14c-0.8,5.6-1,10-1,13c-0.2,9.9-0.2,43,0,88c-0.2,1.9-0.3,4.7,0,8
		c0.8,8.6,3.8,14.7,5,17c2,3.7,3.9,7.2,8,10c2.7,1.8,5.3,2.6,7,3c-9.2,0.4-18.5,0.8-28,1c-21.3,0.5-42,0.5-62,0c1.2-0.6,3-1.6,5-3
		c2.9-2,9.7-6.7,13-14c2.1-4.8,2-9.1,2-11c-0.2-11.6,0.4-50.6,1-104c0.6-8.3,0.4-15.1,0-20c-0.5-6.6-1.2-9.6-2-12
		c-1.2-3.6-2.7-8.1-7-12c-1.1-1-4.2-3.8-9-5c-10.6-2.7-19.8,4.9-21,6c-4.1,3.5-5.9,7.4-9,14c-3,6.5-4.3,11.9-5,15
		c-1.4,6-1.8,11.1-2,15c0,30.3,0,60.7,0,91c-0.1,1.3-0.1,3,0,5c0.1,2.6,0.4,6.9,2,12c2.1,6.5,5.4,11,7,13c2.3,2.9,4.6,4.9,6,6
		c2.2,1.8,4.3,3.1,6,4c-33,0-66,0-99,0c0.8-0.5,1.8-1.2,3-2c1.7-1.2,5.3-3.7,10-8c4.4-4,6.6-5.9,9-9c1.9-2.5,4.3-5.5,6-10
		c1-2.6,2.3-7,2-13c0-36.3,0-72.7,0-109c-0.1-1.7-0.3-4.1-1-7c-0.8-3.3-2.8-11.4-10-18c-5.2-4.9-10.7-6.6-12-7c-5.5-1.7-10-1.3-13-1
		c-5.7,0.5-10,2.2-12,3c-1.7,0.7-3,1.4-4,2c-0.3,0-0.7,0-1,0C821.4,153.6,817,147.9,812.7,142.3z"/><g><g><path d="M1340.7,265.3c-3.1,3-7.5,7.1-13,12c-6,5.3-8.9,7.9-13,11c-9.1,6.9-16.7,10.8-19,12c-5.1,2.6-8.7,4.4-14,6
				c-13,3.9-23.7,2.4-26,2c-8.1-1.3-14-4-18-6c0,0-7.4-3.6-13-8c-10.5-8.3-16.8-32.9-14-63c33.7-1.7,67.3-3.3,101-5c1,0,2.9,0,5-1
				c3.1-1.5,4.6-4.1,5-5c0.1-2.8,0.2-7,0-12c-0.4-10.5-1.2-27.2-9-46c-2.4-5.8-6.1-14.6-14-24c-4.1-4.9-10-11.8-20-17
				c-7.6-3.9-14.3-5.1-19-6c-10-1.8-17.9-1.3-21-1c-3,0.3-11.2,1.2-21,5c-11.5,4.4-19,10.4-21,12c-7.4,6.1-11.6,11.9-16,18
				c-3.7,5.1-8.1,12.2-12,21c-3.1,7.1-5,13.2-6,17c-1.8,6.7-2.6,12-3,15c-0.5,3.6-0.8,6.6-1,9c-1.7,0.3-4.1,0.9-7,2
				c-1.1,0.4-3.3,1.3-10,5c-1.8,1-4.2,2.3-7,4v24c1.4-0.8,3.4-1.9,6-3c2.4-1,6.1-2.5,11-3c1.7-0.2,4.1-0.3,7,0c0.1,2.9,0.4,6.7,1,11
				c0.3,2,0.8,5.2,2,10c1,3.9,2.8,11.3,6,19c4.5,10.6,10,17.9,14,23c7.5,9.6,16.3,20.9,32,29c10,5.1,18.7,6.8,25,8
				c14.9,2.8,26.6,1.7,33,1c4.9-0.5,9.7-1,16-3c8.2-2.6,14-6.1,17-8c6.2-3.9,10.4-7.6,13-10c1.4-1.3,6.1-5.6,12-13
				c4.6-5.7,10.4-14,16-25C1344,276.6,1342.4,270.9,1340.7,265.3z M1214.7,172.3c1.8-8,5.3-19.5,13-29c1.7-2.2,3.8-4.4,7-6
				c7.5-3.8,15.3-1.5,17-1c10.4,3.3,15.1,13,17,17c0.5,1.1,1.3,3,2,5c1.7,4.7,2.4,8.3,3,11c0.8,4.1,0.5,3.6,2,16c0.7,6,1,7.4,0,9
				c-2.2,3.6-7.8,3.9-10,4c-9.9,0.6-28.4,2.8-54,6C1211.2,190.7,1213,179.7,1214.7,172.3z"/></g><g><path class="st4" d="M1340.7,265.3c-3.1,3-7.5,7.1-13,12c-6,5.3-8.9,7.9-13,11c-9.1,6.9-16.7,10.8-19,12c-5.1,2.6-8.7,4.4-14,6
				c-13,3.9-23.7,2.4-26,2c-8.1-1.3-14-4-18-6c0,0-7.4-3.6-13-8c-10.5-8.3-16.8-32.9-14-63c33.7-1.7,67.3-3.3,101-5c1,0,2.9,0,5-1
				c3.1-1.5,4.6-4.1,5-5c0.1-2.8,0.2-7,0-12c-0.4-10.5-1.2-27.2-9-46c-2.4-5.8-6.1-14.6-14-24c-4.1-4.9-10-11.8-20-17
				c-7.6-3.9-14.3-5.1-19-6c-10-1.8-17.9-1.3-21-1c-3,0.3-11.2,1.2-21,5c-11.5,4.4-19,10.4-21,12c-7.4,6.1-11.6,11.9-16,18
				c-3.7,5.1-8.1,12.2-12,21c-3.1,7.1-5,13.2-6,17c-1.8,6.7-2.6,12-3,15c-0.5,3.6-0.8,6.6-1,9c-1.7,0.3-4.1,0.9-7,2
				c-1.1,0.4-3.3,1.3-10,5c-1.8,1-4.2,2.3-7,4v24c1.4-0.8,3.4-1.9,6-3c2.4-1,6.1-2.5,11-3c1.7-0.2,4.1-0.3,7,0c0.1,2.9,0.4,6.7,1,11
				c0.3,2,0.8,5.2,2,10c1,3.9,2.8,11.3,6,19c4.5,10.6,10,17.9,14,23c7.5,9.6,16.3,20.9,32,29c10,5.1,18.7,6.8,25,8
				c14.9,2.8,26.6,1.7,33,1c4.9-0.5,9.7-1,16-3c8.2-2.6,14-6.1,17-8c6.2-3.9,10.4-7.6,13-10c1.4-1.3,6.1-5.6,12-13
				c4.6-5.7,10.4-14,16-25C1344,276.6,1342.4,270.9,1340.7,265.3z M1214.7,172.3c1.8-8,5.3-19.5,13-29c1.7-2.2,3.8-4.4,7-6
				c7.5-3.8,15.3-1.5,17-1c10.4,3.3,15.1,13,17,17c0.5,1.1,1.3,3,2,5c1.7,4.7,2.4,8.3,3,11c0.8,4.1,0.5,3.6,2,16c0.7,6,1,7.4,0,9
				c-2.2,3.6-7.8,3.9-10,4c-9.9,0.6-28.4,2.8-54,6C1211.2,190.7,1213,179.7,1214.7,172.3z"/></g></g><path class="st2" d="M1322.7,236.3c0.7,0.7,1.8,1.7,3,3c2.1,2.4,3.6,4.6,5,7c5.6,9.8,9,18,9,18c3,7.4,3.8,10,9,24
		c2.2,6,3.9,10.5,6,16c4.9,12.9,6.9,18.1,10,27c1.3,3.8,2.3,7,3,9c2.3,0,4.7,0,7,0c6-17.3,12-34.7,18-52c6.7,17.3,13.3,34.7,20,52
		c2,0,4,0,6,0c9.7-30,20.3-60.3,32-91c1.7-4.4,3.3-8.7,5-13c-8.7,0-17.3,0-26,0c0.3,0.5,0.6,1.2,1,2c1.1,2.5,1.6,4.6,2,6
		c0.3,1.2,0.7,3.3,1,6c0.2,1.7,0.4,4.5,0,8c-0.3,2.2-0.8,4.2-2,8c-1,3.2-1.6,4.8-3,9c-1.6,4.7-1.7,5.2-3,9c-1.1,3.4-2.8,8.1-5,14
		c-4.7-16-9.3-32-14-48c0-0.2,0-0.6,0-1c0.3-2.6,2.8-4.2,4-5c2.9-1.9,6.5-4.6,11-8c-17,0-34,0-51,0c1.7,2.7,3.3,5.3,5,8
		c3.7,9,7.3,18,11,27c-3.3,9.7-6.7,19.3-10,29c-5-16.3-10-32.7-15-49c-0.1-0.8-0.1-1.8,0-3c0.1-0.6,0.3-2.2,1-4c0.4-1,0.8-1.6,3-5
		c0.8-1.2,1.5-2.2,2-3C1352.7,236.3,1337.7,236.3,1322.7,236.3z"/><path class="st2" d="M1451.7,249.3c1.7-4.3,3.3-8.7,5-13c10,0,20,0,30,0c3.2-0.3,5.8-1.1,8-2c15.5-6.4,20.2-24.5,21-28
		c4,0,8,0,12,0c0,9.7,0,19.3,0,29c0.3,0.3,0.7,0.7,1,1c2.2-0.2,4.5-0.5,7-1c10.5-2.2,18.6-6.9,24-11c0-8,0-16,0-24
		c-0.2-0.5-0.5-1.2-1-2c-2.7-4.4-7.1-5.2-7-6c0.1-1,7.7-1.6,32-1c0.4,0.1,0.7,0.1,1,0c5.2-1.1,7.4-19.7,4-35c-1.4-6.2-4-12-4-12
		c-0.4-1-1-2.4-2-4c-10.2-17.2-34-18.9-35-19c-25.5-1.5-41.8,20.4-43,22c0-0.5-0.1-1.2,0-2c1-14,22.9-22.2,25-23c2.9-1,14-4.8,28-2
		c10.3,2.1,17.1,6.7,19,8c2.6,1.9,10.7,7.9,16,19c4.1,8.7,4.6,16.1,5,23c0.6,10.5-1,18.5-2,23c-1.1,4.9-2.4,10.9-6,18
		c-2.7,5.3-5.7,9.3-8,12c0,13,0,26,0,39c0,0.3,0,0.7,0,1c1.9-3.3,3.6-6,5-8c1.3-1.8,1.9-2.8,3-4c1.3-1.5,3.5-4,7-6
		c4.6-2.6,8.9-2.9,11-3c4.7-0.3,8.2,0.8,9,1c0,0,4.9,1.5,9,5c9.5,8.1,9,23.9,9,25c0,19,0,38,0,57c0.4,1.7,1.2,4.3,3,7
		c2.7,4,6.2,6.1,8,7c-14.3,0-28.7,0-43,0c-0.7,0-1.3,0-2,0c1.5-0.6,3.3-1.5,5-3c5.3-4.6,5.9-11.2,6-13c0-15.7,0-31.3,0-47
		c0.1-1,0.1-2.3,0-4c-0.1-1.9-0.4-5.2-2-9c-1.1-2.6-1.9-4.5-4-6c-2.5-1.8-5.1-2-6-2c-3.4-0.1-5.9,1.3-7,2c-3.5,2.1-5.1,5.2-6,7
		c-0.8,1.6-1.2,3.1-2,6c-1,3.6-1.6,6.9-2,10c-0.5,3.8-0.8,7.2-1,11c-0.4,7.3-0.1,10.9,0,21c0,3,0.1,7.5,0,13c-0.1,0.7-0.1,1.4,0,2
		c0.7,6.8,8,11,10,12c-14,0-28,0-42,0c1.2-0.7,2.6-1.6,4-3c3.3-3.3,4.5-7,5-9c0.7-9.3,1-16.7,1-22c0-0.7,0-0.4,0-14
		c0-4.7,0-9.3,0-14c0-5.3,0-10.7,0-16c0-7.3,0-14.7,0-22c-1,0.7-2,1.4-3,2c-10,6.2-20.5,7.9-29,8c0,21,0,42,0,63c0,0.9,0.2,2.4,1,4
		c0.4,0.8,1.6,3.3,4,4c2.1,0.6,4.1-0.5,5-1c6.7-3.7,14.3-24.1,15-26c-0.7,8.7-1.3,17.3-2,26c-0.2,0.7-0.5,1.8-1,3
		c-1.2,3.1-4.5,11.6-13,16c-1.9,1-8.7,4.4-17,2c-7.2-2.1-11.8-7.5-14-12c-1.5-3.1-1.9-5.8-2-7c-1.7-14.7-0.1-68.1,0-72
		c-6.3,0-12.7,0-19,0c0,30.3,0,60.7,0,91c-0.8,0.4-1.8,1.1-3,2c-2.6,2-4.2,4-5,5c-3.7,4.7-6.2,11.1-7,13c-2.5,6.4-4.4,12.7-6,19
		c-1,3.9-2.1,9-3,15c0-45.3,0-90.7,0-136c-0.1-1.1-0.3-2.5-1-4C1457.5,250.7,1452.5,249.5,1451.7,249.3z"/><g><g><path d="M968.7,398.3l-15,15c-1.1,2.7-2.8,6.5-5,11c-4.8,9.7-18.4,36.8-45,60c-17.4,15.2-18.7,9.8-43,30
				c-10.3,8.5-15.3,13.8-29,24c-2.3,1.7-12.6,9.3-27,18c-19,11.5-28.3,14.8-32,16c-6.2,2.1-10.2,3.4-16,4c-4.8,0.5-23.3,2.4-36-9
				c-6.1-5.5-8.2-11.8-11-20c-3-8.8-6.9-24.7-4-46c33.3-1.3,66.7-2.7,100-4c0.9,0.3,2.8,0.6,5,0c3.9-1.1,5.7-4.4,6-5
				c0.2-6.9,0-14.6-1-23c-1.6-12.7-3.8-30.8-15-49c-4.2-6.8-9.5-15.6-20-23c-21.7-15.4-46.4-11.8-52-11c-22.8,3.3-37.4,16-43,21
				c-30.5,27.2-31.9,66.6-32,75c-2.5,0.7-5.6,1.6-9,3c-19.3,7.9-38.9,25.4-44,48c-0.6,2.7-0.9,4.9-1,6c2.4-2.4,6.2-6,11-10
				c9.1-7.5,16-13,26-16c3.5-1,8.9-2.2,16-2c0.2,4.5,0.7,10.3,2,17c0.7,3.5,2.5,11.9,7,23c4.9,12,9.9,24.2,21,36
				c1.2,1.3,12.7,13.2,29,20c37.7,15.8,75.9-5.1,85-10c2.8-1.5,7.5-4.7,17-11c9.4-6.3,31.1-21.1,58-43c11-9,23.9-19.5,40-35
				c6.4-6.1,12.3-12,15-15c22.1-23.9,35.9-55.4,44-79C970,408.9,969.4,403.6,968.7,398.3z M711.7,436.3c1.2-4.6,3.1-11.1,8-18
				c2.4-3.4,4.8-6.8,9-9c7.1-3.8,16.4-3.3,23,1c3.7,2.4,5.6,5.3,8,9c3.7,5.6,5.5,11.1,7,17c1.8,7.1,3.8,17.9,4,32
				c-21.7,2.3-43.3,4.7-65,7C706.3,465.4,707.9,451,711.7,436.3z"/></g><g><path class="st4" d="M968.7,398.3l-15,15c-1.1,2.7-2.8,6.5-5,11c-4.8,9.7-18.4,36.8-45,60c-17.4,15.2-18.7,9.8-43,30
				c-10.3,8.5-15.3,13.8-29,24c-2.3,1.7-12.6,9.3-27,18c-19,11.5-28.3,14.8-32,16c-6.2,2.1-10.2,3.4-16,4c-4.8,0.5-23.3,2.4-36-9
				c-6.1-5.5-8.2-11.8-11-20c-3-8.8-6.9-24.7-4-46c33.3-1.3,66.7-2.7,100-4c0.9,0.3,2.8,0.6,5,0c3.9-1.1,5.7-4.4,6-5
				c0.2-6.9,0-14.6-1-23c-1.6-12.7-3.8-30.8-15-49c-4.2-6.8-9.5-15.6-20-23c-21.7-15.4-46.4-11.8-52-11c-22.8,3.3-37.4,16-43,21
				c-30.5,27.2-31.9,66.6-32,75c-2.5,0.7-5.6,1.6-9,3c-19.3,7.9-38.9,25.4-44,48c-0.6,2.7-0.9,4.9-1,6c2.4-2.4,6.2-6,11-10
				c9.1-7.5,16-13,26-16c3.5-1,8.9-2.2,16-2c0.2,4.5,0.7,10.3,2,17c0.7,3.5,2.5,11.9,7,23c4.9,12,9.9,24.2,21,36
				c1.2,1.3,12.7,13.2,29,20c37.7,15.8,75.9-5.1,85-10c2.8-1.5,7.5-4.7,17-11c9.4-6.3,31.1-21.1,58-43c11-9,23.9-19.5,40-35
				c6.4-6.1,12.3-12,15-15c22.1-23.9,35.9-55.4,44-79C970,408.9,969.4,403.6,968.7,398.3z M711.7,436.3c1.2-4.6,3.1-11.1,8-18
				c2.4-3.4,4.8-6.8,9-9c7.1-3.8,16.4-3.3,23,1c3.7,2.4,5.6,5.3,8,9c3.7,5.6,5.5,11.1,7,17c1.8,7.1,3.8,17.9,4,32
				c-21.7,2.3-43.3,4.7-65,7C706.3,465.4,707.9,451,711.7,436.3z"/></g></g><path class="st2" d="M798.7,387.3c4,3.7,8,7.3,12,11c3.4,5.3,6.7,10.9,10,17c8,14.9,13.8,29.2,18,42c4.3,12,15.7,44,20,56
		c10.3,28.8,23.7,66.2,34,95c6,0,12,0,18,0c10.9-32.4,19.8-58.6,26-77c5.6-16.5,10-29.3,15-44c7.5-21.9,13.8-39.9,18-52
		c1.6-3.4,4-8.2,7-14c4-7.6,6.1-11.7,9-16c3.1-4.7,8.1-11.2,16-18c-26.7,0-53.3,0-80,0c4.8,0.6,8.5,1.9,11,3c2.7,1.2,10.4,4.7,16,13
		c2.1,3.1,3.3,6,4,8c-11.7,37-23.3,74-35,111c-13.3-36.3-26.7-72.7-40-109c0.2-1.3,0.6-2.6,1-4c3.7-11.7,13.3-18.6,19-22
		C864.7,387.3,831.7,387.3,798.7,387.3z"/><g><g><path d="M1319.7,418.3c-0.4-1.9-4.7-20-18-29c-18.1-12.2-50.2-5.8-74,20v-23c-26.7,0.3-53.3,0.7-80,1c3.5,0.3,9.9,1.4,16,6
				c13.5,10.3,12.1,28.5,12,30c0.3,15.3,0.7,30.7,1,46c-3.4,8.1-8.3,19.1-15,32c-3.9,7.5-7.5,14.4-13,23c-7.8,12.2-13.6,21.3-24,31
				c-14.7,13.7-28.1,18.7-32,20c-11,3.8-17.1,3.2-19,3c-10.6-1.2-17.6-7.2-21-10c-14.1-11.8-21.4-37.3-19-67
				c34.3-1.7,68.7-3.3,103-5c0.8-0.2,1.8-0.4,3-1c0,0,1.6-0.8,3-2c6.3-5.6-1-36-1-36c-3.2-13.1-4.8-19.7-7-25c-3.6-8.5-9-21.3-22-32
				c-2.8-2.3-15-12-34-15c-24.5-3.8-44.1,6.3-53,12c-16.9,10.9-24.7,25.3-30,35c-10.8,19.8-13.3,38.4-14,49c-2.1,0.9-5.2,2.3-9,4
				c-12.7,5.9-15.9,8.1-17,9c-2.3,1.8-5.6,4.6-9,9c-3,9.3-6,18.7-9,28c1.2-1.7,2.5-3.4,4-5c12.7-13.7,31.1-15.7,40-16
				c-0.1,2.2-0.2,5.3,0,9c0.8,15.7,6.5,43.5,30,65c4,3.6,27.8,24.7,63,24c19-0.4,32.7-6.9,41-11c36-17.6,53.9-49.2,61-64v43
				c-0.3,2.7-0.9,5.8-2,9c-4.9,13.6-16.4,20.6-21,23c34.7,0.3,69.3,0.7,104,1c-1.9-1.2-4.7-2.9-8-5c-3.1-2-7-4.5-9-6
				c-3.3-2.5-8.1-7.1-12-16c-0.3-2-0.7-4-1-6v-125c2.1-3.3,5.1-8.2,9-14c5-7.4,7.4-11.1,10-14c5-5.6,11.3-12.7,21-14
				c4.7-0.6,8.6,0.2,11,1c-1.7,0.6-4.4,1.8-7,4c-13.2,10.8-9.4,32.1-9,34c0.8,4.3,2.1,11.1,8,17c1.6,1.6,7.6,7.4,17,8
				c11.7,0.7,19.4-7.4,21-9c1-1,4-4.3,7-12C1318.3,445.6,1323.1,433.5,1319.7,418.3z M1038.7,440.3c0.5-2.4,2.1-9.1,6-17
				c4.2-8.4,7.6-11,9-12c4.4-3,8.8-3.8,11-4c6.8-0.7,12,1.9,14,3c9.7,5.1,13.1,15.4,15,21c0.3,1,1.2,5.3,3,14c1,4.7,1.8,9.2,2,15
				c0.1,1.8,0.1,3.3,0,4c-1.4,9.5-52.4,10.8-65,11C1034.8,460,1036.9,448.2,1038.7,440.3z"/></g><g><path class="st4" d="M1319.7,418.3c-0.4-1.9-4.7-20-18-29c-18.1-12.2-50.2-5.8-74,20v-23c-26.7,0.3-53.3,0.7-80,1
				c3.5,0.3,9.9,1.4,16,6c13.5,10.3,12.1,28.5,12,30c0.3,15.3,0.7,30.7,1,46c-3.4,8.1-8.3,19.1-15,32c-3.9,7.5-7.5,14.4-13,23
				c-7.8,12.2-13.6,21.3-24,31c-14.7,13.7-28.1,18.7-32,20c-11,3.8-17.1,3.2-19,3c-10.6-1.2-17.6-7.2-21-10
				c-14.1-11.8-21.4-37.3-19-67c34.3-1.7,68.7-3.3,103-5c0.8-0.2,1.8-0.4,3-1c0,0,1.6-0.8,3-2c6.3-5.6-1-36-1-36
				c-3.2-13.1-4.8-19.7-7-25c-3.6-8.5-9-21.3-22-32c-2.8-2.3-15-12-34-15c-24.5-3.8-44.1,6.3-53,12c-16.9,10.9-24.7,25.3-30,35
				c-10.8,19.8-13.3,38.4-14,49c-2.1,0.9-5.2,2.3-9,4c-12.7,5.9-15.9,8.1-17,9c-2.3,1.8-5.6,4.6-9,9c-3,9.3-6,18.7-9,28
				c1.2-1.7,2.5-3.4,4-5c12.7-13.7,31.1-15.7,40-16c-0.1,2.2-0.2,5.3,0,9c0.8,15.7,6.5,43.5,30,65c4,3.6,27.8,24.7,63,24
				c19-0.4,32.7-6.9,41-11c36-17.6,53.9-49.2,61-64v43c-0.3,2.7-0.9,5.8-2,9c-4.9,13.6-16.4,20.6-21,23c34.7,0.3,69.3,0.7,104,1
				c-1.9-1.2-4.7-2.9-8-5c-3.1-2-7-4.5-9-6c-3.3-2.5-8.1-7.1-12-16c-0.3-2-0.7-4-1-6v-125c2.1-3.3,5.1-8.2,9-14
				c5-7.4,7.4-11.1,10-14c5-5.6,11.3-12.7,21-14c4.7-0.6,8.6,0.2,11,1c-1.7,0.6-4.4,1.8-7,4c-13.2,10.8-9.4,32.1-9,34
				c0.8,4.3,2.1,11.1,8,17c1.6,1.6,7.6,7.4,17,8c11.7,0.7,19.4-7.4,21-9c1-1,4-4.3,7-12C1318.3,445.6,1323.1,433.5,1319.7,418.3z
				 M1038.7,440.3c0.5-2.4,2.1-9.1,6-17c4.2-8.4,7.6-11,9-12c4.4-3,8.8-3.8,11-4c6.8-0.7,12,1.9,14,3c9.7,5.1,13.1,15.4,15,21
				c0.3,1,1.2,5.3,3,14c1,4.7,1.8,9.2,2,15c0.1,1.8,0.1,3.3,0,4c-1.4,9.5-52.4,10.8-65,11C1034.8,460,1036.9,448.2,1038.7,440.3z"/></g></g><path class="st2" d="M1448.7,479.3c0-30.3,0-60.7,0-91c-1.9,2.6-3.7,4.6-5,6c-2.7,2.8-5.5,5.8-10,8c-2,1-3.7,1.8-6,2
		c-3.8,0.3-6.8-1.3-8-2c0,0-2-1.1-18-8c-9.5-4.1-18.2-4-23-4c-4.1,0-13.4,0.2-24,5c-9.6,4.4-15.5,10.4-20,15c-1.4,1.4-6.9,7.2-11,14
		c-9.9,16.4-12.5,40-5,61c2.1,5.8,7.8,21.9,23,32c7.1,4.8,15.2,7.4,23,10c9.8,3.2,12.2,2.8,25,7c14.4,4.7,18.3,7.5,21,10
		c2.3,2.1,7,6.6,9,14c0.7,2.4,2.5,9.5-1,17c-2.6,5.6-6.8,8.5-9,10c-5.5,3.7-10.8,4.5-15,5c-2.3,0.3-10.6,1.2-21-2
		c-2.2-0.7-10.7-3.4-21-12c-3.2-2.7-10.4-9.1-22-28c-5.2-8.4-11.7-20.2-18-35c0,34,0,68,0,102c2.9-4,5.7-6.9,8-9c4.7-4.3,8-7.4,13-8
		c3.8-0.5,7.3,1,10,2s4.3,2,6,3c5.8,3.3,10.9,4.8,15,6c7.8,2.3,14.2,2.8,18,3c5.1,0.3,11.6,0.7,20-1c10.4-2.1,18-6.4,22-9
		c2.2-1.4,9.9-6.6,17-16c8.2-10.8,11.1-21.2,12-25c1.5-6.2,1.7-11,2-19c0.4-9.5-0.4-15.5-1-19c-0.1-0.8-0.5-2.8-1-5
		c0,0-2.8-12.2-9-22c-6.4-10.2-19-14.6-44-23c-19.4-6.5-23.4-5.9-32-12c-6-4.3-18.7-13.3-18-26c0.7-13.2,15.2-20.6,16-21
		c10.5-5.2,21-2.4,26-1c18,5.1,28.3,19.7,39,35C1436.5,455.1,1443,465.5,1448.7,479.3z"/><g><g><path d="M1630.7,562.3c-7.5,6-15.8,12.1-28,16c-5.3,1.7-15.2,4.7-28,3c-4.9-0.7-23.5-3.1-34-18c-2-2.9-3-5.2-5-10
				c-5.7-13.7-6.5-25.9-7-34c-0.2-3.7-0.3-8.8,0-15c56.7-2.5,98.1-4.6,103-5c1.8-0.1,5.2-0.6,7-3c0.6-0.8,0.9-1.5,1-2
				c0.4-6.8,0.5-16.1-1-27c-1-7.3-3.3-22.2-12-39c-5.1-9.8-10.1-19.5-21-28c-15.3-12-31.7-13.6-37-14c-22.4-1.9-38.9,7.4-45,11
				c0,0-24.3,14.2-36,42c-2.6,6.2-4.4,13.4-8,28c-0.7,2.9-1.8,7.7-2,14c0,1.3,0,2.3,0,3c-7.9,1.5-18.2,4.9-27,13c-1.1,1-2.1,2-3,3
				c2.3,6,4.7,12,7,18c7.3-2,14.7-4,22-6c0.2,10.5,2,35.5,19,60c4.2,6,22.9,33,54,40c13.7,3.1,29.6,2.2,34,2c8.8-0.5,14.6-0.8,22-3
				c17.1-5.1,27.9-15.9,35-23c9.3-9.3,14.7-18.1,19-25c5.7-9.2,9.2-16.9,11-21c4.7-10.5,6.5-17.2,7-19c1-3.6,1.6-6.7,2-9
				C1659.7,537.6,1642.2,553,1630.7,562.3z M1539.7,427.3c1.1-3.4,2.9-8.8,8-13c5-4.1,10.7-4.8,13-5c7.6-0.5,13,2.8,15,4
				c7.5,4.6,10.1,12.3,13,20c1.6,4.5,2.4,8,3,11c1.8,8.7,2.2,16.6,2,23c-0.4,0.6-1.1,1.3-2,2c-2.5,1.8-5.2,1.9-6,2
				c-3.9,0.3-26.2,2.7-57,6C1529.5,472.5,1533.8,446,1539.7,427.3z"/></g><g><path class="st4" d="M1630.7,562.3c-7.5,6-15.8,12.1-28,16c-5.3,1.7-15.2,4.7-28,3c-4.9-0.7-23.5-3.1-34-18c-2-2.9-3-5.2-5-10
				c-5.7-13.7-6.5-25.9-7-34c-0.2-3.7-0.3-8.8,0-15c56.7-2.5,98.1-4.6,103-5c1.8-0.1,5.2-0.6,7-3c0.6-0.8,0.9-1.5,1-2
				c0.4-6.8,0.5-16.1-1-27c-1-7.3-3.3-22.2-12-39c-5.1-9.8-10.1-19.5-21-28c-15.3-12-31.7-13.6-37-14c-22.4-1.9-38.9,7.4-45,11
				c0,0-24.3,14.2-36,42c-2.6,6.2-4.4,13.4-8,28c-0.7,2.9-1.8,7.7-2,14c0,1.3,0,2.3,0,3c-7.9,1.5-18.2,4.9-27,13c-1.1,1-2.1,2-3,3
				c2.3,6,4.7,12,7,18c7.3-2,14.7-4,22-6c0.2,10.5,2,35.5,19,60c4.2,6,22.9,33,54,40c13.7,3.1,29.6,2.2,34,2c8.8-0.5,14.6-0.8,22-3
				c17.1-5.1,27.9-15.9,35-23c9.3-9.3,14.7-18.1,19-25c5.7-9.2,9.2-16.9,11-21c4.7-10.5,6.5-17.2,7-19c1-3.6,1.6-6.7,2-9
				C1659.7,537.6,1642.2,553,1630.7,562.3z M1539.7,427.3c1.1-3.4,2.9-8.8,8-13c5-4.1,10.7-4.8,13-5c7.6-0.5,13,2.8,15,4
				c7.5,4.6,10.1,12.3,13,20c1.6,4.5,2.4,8,3,11c1.8,8.7,2.2,16.6,2,23c-0.4,0.6-1.1,1.3-2,2c-2.5,1.8-5.2,1.9-6,2
				c-3.9,0.3-26.2,2.7-57,6C1529.5,472.5,1533.8,446,1539.7,427.3z"/></g></g><path class="st6" d="M1051.7,10.3"/></g><circle class="st2" cx="1469.6" cy="215.7" r="16.7"/></svg><?xml version="1.0" encoding="utf-8"?><!--Generator: Adobe Illustrator 23.0.0, SVG Export Plug-In . SVG Version: 6.00 Build 0)--><svg version="1.1" id="Layer_1" xmlns="http://www.w3.org/2000/svg" xmlns:xlink="http://www.w3.org/1999/xlink" x="0px" y="0px" viewBox="0 0 1680.5 828.8" style="enable-background:new 0 0 1680.5 828.8;" xml:space="preserve"><style type="text/css">.st0{display:none;}
	.st1{display:inline;stroke:#000000;stroke-miterlimit:10;}
	.st2{stroke:#000000;stroke-miterlimit:10;}
	.st3{fill:#B3B3B3;stroke:#000000;stroke-miterlimit:10;}
	.st4{fill:none;stroke:#000000;stroke-miterlimit:10;}
	.st5{fill:none;stroke:#6A41FF;stroke-miterlimit:10;}
	.st6{stroke:#6A41FF;stroke-miterlimit:10;}</style><g class="st0"><path class="st1" d="M611.7,97.3"/><path class="st1" d="M562.7,218.3"/><image style="display:inline;overflow:visible;enable-background:new    ;" width="3484" height="1365" xlink:href="5D7D15E9.png" transform="matrix(0.4822 0 0 0.6066 0.1924 0.7791)"/></g><g id="Layer_3"><path class="st2" d="M609.7,142.3c0,459,0.4,664.3,1,680c0,0.5,0.2,6,0,6c-0.5,0-2.4-27-6-59c-2.5-22.4-4.5-39.9-9-63
		c-4.3-22.3-7.3-37.2-15-56c-3.4-8.3-7-22.8-19-36c-2-2.2-3.8-3.9-5-5c0-69.3,0-138.7,0-208c-1.6,2.8-4.4,7.4-8,13
		c-64.7,100-243.8,172.9-244,173l0,0c-5.1,2.1-10,3.9-15.3,5.6c-26.7,8.8-47.7,12.2-69.7,15.4c-23.1,3.4-36.6,5.3-56,5
		c-14.4-0.3-26.4-1.7-35-3c-8.9-1.6-20.8-4.4-34-10c-22.4-9.4-37.1-21.7-42-26c-6.5-5.7-31.5-28.6-44-66l0,0
		c-2.4-6.7-14.4-41.6-4-85c3.2-13.1,17.2-71.6,72-97c50.1-23.2,108.9-7.2,117,9c1.2,2.3,6.2,14.7,18,27c1.2,1.3,2.3,2.3,3,3
		c-3.4-2.5-8.5-5.9-15-9c-13.4-6.4-25-8.1-32-9c-10.1-1.3-17.9-1.1-21-1c-16.5,0.6-28.6,4.4-37,7c-6.7,2.1-13.5,4.3-22,9
		s-14.2,9.5-16,11c-2.8,2.4-14.8,12.9-23,30c-10.6,21.9-9,42.5-8,54c0.9,10.2,4.4,50.6,36,78c14.3,12.4,31.2,19.5,55,24
		c76.2,14.5,145.4-12.4,182-27c0,0,82.9-33.2,141-90c21.9-21.4,44-49,44-49c11.9-14.8,21.2-28,28-38c-10.8-1-29.6-4.1-49-16
		c-5-3.1-20.9-13.3-37-37c-29.2-42.8-31.4-88.6-33-120c-1-21-0.4-51.7,9-86c6.1-22.3,12.8-34.8,18-43c5.1-8.1,14-21.9,31-34
		c5.9-4.2,18.6-12.4,37-17c0,0,23.5-5.1,50,2c3.3,0.9,7,2,7,2c6.4,1.9,11.7,3.8,15,5c7,2.6,6,2.5,8,3c3.3,0.8,9.1,2.2,15,0
		c2.3-0.9,4.6-2.6,9-6c2.6-2,4.6-3.7,6-5c0,33,0,66,0,99c-0.9-3-2.2-7.2-4-12c-2.4-6.3-4-10.8-7-16c-4.9-8.7-10.5-14.4-15-19
		c-3.3-3.3-5.8-6-10-9c-7.2-5.2-13.6-7.7-17-9c-6.7-2.5-12.1-3.5-15-4c-3.9-0.7-6.9-1.2-11-1c-5.3,0.2-9.2,1.4-11,2
		c-2,0.6-11.3,3.7-22,14c-3.7,3.5-12.4,12.6-19,28c-2.8,6.5-5.3,14.2-8,35c-0.9,6.6-4,31.6-4,66c0,12.2,0.4,25.2,2,40
		c0.9,8.1,1.7,13.2,2,15c1.5,9.2,3.3,19.6,8,32c3.5,9.2,6.2,16.4,13,24c1,1.2,5.6,6.2,13,11c3,1.9,6.7,4.3,12,6
		c3.9,1.3,7.2,1.7,11,2c5.8,0.5,14.6,0.8,26,0c0-28.7,0-57.3,0-86c2.2-1.2,5-2.8,8-5c4.4-3.2,7.3-6.2,8-7c1.7-1.8,3.5-4.1,8-11
		c3.6-5.4,5.8-9.5,10-17c2.8-5.1,4.7-8.7,7-13c5.6-10.7,7.3-14.4,8-16C607.5,148.1,608.9,144.6,609.7,142.3z"/><path class="st3" d="M240.7,384.3"/><path class="st2" d="M610.2,298.8c15.5-4.7,34.4-12.4,54-25c47.2-30.5,70.7-72.1,81-94c-0.5,6.5-1.8,16.4-5,28
		c-4.8,17.2-11.5,29.6-20,45c-7,12.7-10.6,19.3-17,28c-16.5,22.6-34.5,36.1-43,42c-16.7,11.5-31.5,17.5-38,20c-4.8,1.8-8.9,3.1-12,4
		C610.2,330.8,610.2,314.8,610.2,298.8z"/><g><g><path d="M840.7,213.3c-1.3-13.1-2.7-28-11-45c-7.3-15-15.9-23.9-18-26c-3.7-3.7-10-9.9-20-15c-13.7-7-26.1-7.5-37-8
				c-6.7-0.3-15.6-0.6-27,2c-13.1,3-22.2,8.3-25,10c-6.9,4.2-17.5,12-26,25c-6.8,10.4-9.2,19.3-12,30c-5.2,19.8-5.1,36-5,47
				c0.1,10.8,0.3,22.8,4,38c3.6,14.7,7.5,30.8,21,46c17.2,19.3,38.7,24.6,45,26c23.8,5.5,42.8-0.6,50-3c6.1-2,16.9-5.8,28-15
				c15.6-13,21.8-28.6,25-37c4.3-11.2,5.4-19.9,7-33C840.8,246.3,842.5,232,840.7,213.3z M787.7,249.3c-2.6,28-8.3,43.3-11,50
				c-4.7,11.5-9.1,17.8-16,21c-1.5,0.7-7,3.2-14,2s-11.4-5.4-14-8c-5.2-5.2-7.3-10.7-10-18c-3.3-9.1-4.6-16.4-5-19
				c-2.2-13.2-4.9-29.7-4-53c0.6-14.7,2.3-24.9,4-35c2.7-16.1,5.2-23.2,9-30c3.6-6.4,7.3-12.7,15-16c1.2-0.5,10.5-4.3,20,0
				c1.7,0.8,5.6,2.8,11,10c6.2,8.2,9.6,16.9,12,26c3.3,12.4,3.6,22,4,35C789.2,231.9,788.1,245.4,787.7,249.3z"/></g><g><path class="st4" d="M840.7,213.3c-1.3-13.1-2.7-28-11-45c-7.3-15-15.9-23.9-18-26c-3.7-3.7-10-9.9-20-15c-13.7-7-26.1-7.5-37-8
				c-6.7-0.3-15.6-0.6-27,2c-13.1,3-22.2,8.3-25,10c-6.9,4.2-17.5,12-26,25c-6.8,10.4-9.2,19.3-12,30c-5.2,19.8-5.1,36-5,47
				c0.1,10.8,0.3,22.8,4,38c3.6,14.7,7.5,30.8,21,46c17.2,19.3,38.7,24.6,45,26c23.8,5.5,42.8-0.6,50-3c6.1-2,16.9-5.8,28-15
				c15.6-13,21.8-28.6,25-37c4.3-11.2,5.4-19.9,7-33C840.8,246.3,842.5,232,840.7,213.3z M787.7,249.3c-2.6,28-8.3,43.3-11,50
				c-4.7,11.5-9.1,17.8-16,21c-1.5,0.7-7,3.2-14,2s-11.4-5.4-14-8c-5.2-5.2-7.3-10.7-10-18c-3.3-9.1-4.6-16.4-5-19
				c-2.2-13.2-4.9-29.7-4-53c0.6-14.7,2.3-24.9,4-35c2.7-16.1,5.2-23.2,9-30c3.6-6.4,7.3-12.7,15-16c1.2-0.5,10.5-4.3,20,0
				c1.7,0.8,5.6,2.8,11,10c6.2,8.2,9.6,16.9,12,26c3.3,12.4,3.6,22,4,35C789.2,231.9,788.1,245.4,787.7,249.3z"/></g></g><path class="st5" d="M827.7,131.3"/><path class="st2" d="M812.7,142.3c3.3-2.9,6.4-5.2,9-7c2.7-1.8,7-4.6,12-7c4.1-1.9,7.3-3.1,10-4c4-1.4,10.8-3.7,20-5
		c6-0.9,10.5-0.9,15-1c7.9-0.1,11.9-0.2,17,1c3.6,0.8,8.7,2.1,14,6c6,4.4,8.8,9.7,10,12c2,3.8,3,7.9,5,16c0.9,3.7,1.6,6.9,2,9
		c2.1-6.9,4.8-12.3,7-16c4.4-7.3,8.9-11.9,14-17c3.5-3.5,5.4-4.9,7-6c0.9-0.6,5.1-3.2,12-5c3.8-1,11.4-2.8,21-1
		c3.4,0.6,13.6,2.7,22,11c3.8,3.7,5.8,7.4,9,13c2.5,4.5,4.5,9,8,17c1.3,2.9,2.3,5.3,3,7c0.7-3.3,1.8-7.9,4-13
		c5.2-12.3,12.5-19.5,14-21c2.3-2.3,6.8-6.5,14-10c5.5-2.6,10.1-3.6,12-4c4.8-0.9,19.9-3,34,6c5.8,3.7,9.3,7.9,11,10
		c5.8,7.1,8,14,10,20c2.5,7.8,3.2,14.1,4,21c0.7,6.7,0.9,11.6,1,18c0.1,5.2,0,7.4,0,23c0,0,0,1.4,0,8c0,11.2,0.3,41.4,1,82
		c0.2,1.3,0.5,3,1,5c0.6,2.2,2.1,7.6,6,13c2.5,3.4,4.9,5.5,9,9c1.5,1.3,4,3.3,6,5c0.3,0.3,0.7,0.7,1,1c-31.3,0-62.7,0-94,0
		c1.5-0.6,3.6-1.6,6-3c3.7-2.2,6.5-3.8,9-7c2.1-2.6,3-5.2,4-8c0.3-0.9,1.2-3.5,2-8c0.6-3.4,1.1-8.2,1-14c0-33,0-66,0-99
		c-0.2-5-0.6-9.1-1-12c-2-15.2-5.7-20.4-7-22c-1.7-2.2-3.3-3.5-4-4c-1.1-0.8-4.3-3.1-9-4c-1.3-0.2-6.2-1.1-12,1c-1,0.4-5.9,2.2-10,7
		c-3,3.5-4.3,7.1-6,12c-0.7,2.1-1.1,3.7-2,7c-0.8,3.2-2.2,8.3-3,14c-0.8,5.6-1,10-1,13c-0.2,9.9-0.2,43,0,88c-0.2,1.9-0.3,4.7,0,8
		c0.8,8.6,3.8,14.7,5,17c2,3.7,3.9,7.2,8,10c2.7,1.8,5.3,2.6,7,3c-9.2,0.4-18.5,0.8-28,1c-21.3,0.5-42,0.5-62,0c1.2-0.6,3-1.6,5-3
		c2.9-2,9.7-6.7,13-14c2.1-4.8,2-9.1,2-11c-0.2-11.6,0.4-50.6,1-104c0.6-8.3,0.4-15.1,0-20c-0.5-6.6-1.2-9.6-2-12
		c-1.2-3.6-2.7-8.1-7-12c-1.1-1-4.2-3.8-9-5c-10.6-2.7-19.8,4.9-21,6c-4.1,3.5-5.9,7.4-9,14c-3,6.5-4.3,11.9-5,15
		c-1.4,6-1.8,11.1-2,15c0,30.3,0,60.7,0,91c-0.1,1.3-0.1,3,0,5c0.1,2.6,0.4,6.9,2,12c2.1,6.5,5.4,11,7,13c2.3,2.9,4.6,4.9,6,6
		c2.2,1.8,4.3,3.1,6,4c-33,0-66,0-99,0c0.8-0.5,1.8-1.2,3-2c1.7-1.2,5.3-3.7,10-8c4.4-4,6.6-5.9,9-9c1.9-2.5,4.3-5.5,6-10
		c1-2.6,2.3-7,2-13c0-36.3,0-72.7,0-109c-0.1-1.7-0.3-4.1-1-7c-0.8-3.3-2.8-11.4-10-18c-5.2-4.9-10.7-6.6-12-7c-5.5-1.7-10-1.3-13-1
		c-5.7,0.5-10,2.2-12,3c-1.7,0.7-3,1.4-4,2c-0.3,0-0.7,0-1,0C821.4,153.6,817,147.9,812.7,142.3z"/><g><g><path d="M1340.7,265.3c-3.1,3-7.5,7.1-13,12c-6,5.3-8.9,7.9-13,11c-9.1,6.9-16.7,10.8-19,12c-5.1,2.6-8.7,4.4-14,6
				c-13,3.9-23.7,2.4-26,2c-8.1-1.3-14-4-18-6c0,0-7.4-3.6-13-8c-10.5-8.3-16.8-32.9-14-63c33.7-1.7,67.3-3.3,101-5c1,0,2.9,0,5-1
				c3.1-1.5,4.6-4.1,5-5c0.1-2.8,0.2-7,0-12c-0.4-10.5-1.2-27.2-9-46c-2.4-5.8-6.1-14.6-14-24c-4.1-4.9-10-11.8-20-17
				c-7.6-3.9-14.3-5.1-19-6c-10-1.8-17.9-1.3-21-1c-3,0.3-11.2,1.2-21,5c-11.5,4.4-19,10.4-21,12c-7.4,6.1-11.6,11.9-16,18
				c-3.7,5.1-8.1,12.2-12,21c-3.1,7.1-5,13.2-6,17c-1.8,6.7-2.6,12-3,15c-0.5,3.6-0.8,6.6-1,9c-1.7,0.3-4.1,0.9-7,2
				c-1.1,0.4-3.3,1.3-10,5c-1.8,1-4.2,2.3-7,4v24c1.4-0.8,3.4-1.9,6-3c2.4-1,6.1-2.5,11-3c1.7-0.2,4.1-0.3,7,0c0.1,2.9,0.4,6.7,1,11
				c0.3,2,0.8,5.2,2,10c1,3.9,2.8,11.3,6,19c4.5,10.6,10,17.9,14,23c7.5,9.6,16.3,20.9,32,29c10,5.1,18.7,6.8,25,8
				c14.9,2.8,26.6,1.7,33,1c4.9-0.5,9.7-1,16-3c8.2-2.6,14-6.1,17-8c6.2-3.9,10.4-7.6,13-10c1.4-1.3,6.1-5.6,12-13
				c4.6-5.7,10.4-14,16-25C1344,276.6,1342.4,270.9,1340.7,265.3z M1214.7,172.3c1.8-8,5.3-19.5,13-29c1.7-2.2,3.8-4.4,7-6
				c7.5-3.8,15.3-1.5,17-1c10.4,3.3,15.1,13,17,17c0.5,1.1,1.3,3,2,5c1.7,4.7,2.4,8.3,3,11c0.8,4.1,0.5,3.6,2,16c0.7,6,1,7.4,0,9
				c-2.2,3.6-7.8,3.9-10,4c-9.9,0.6-28.4,2.8-54,6C1211.2,190.7,1213,179.7,1214.7,172.3z"/></g><g><path class="st4" d="M1340.7,265.3c-3.1,3-7.5,7.1-13,12c-6,5.3-8.9,7.9-13,11c-9.1,6.9-16.7,10.8-19,12c-5.1,2.6-8.7,4.4-14,6
				c-13,3.9-23.7,2.4-26,2c-8.1-1.3-14-4-18-6c0,0-7.4-3.6-13-8c-10.5-8.3-16.8-32.9-14-63c33.7-1.7,67.3-3.3,101-5c1,0,2.9,0,5-1
				c3.1-1.5,4.6-4.1,5-5c0.1-2.8,0.2-7,0-12c-0.4-10.5-1.2-27.2-9-46c-2.4-5.8-6.1-14.6-14-24c-4.1-4.9-10-11.8-20-17
				c-7.6-3.9-14.3-5.1-19-6c-10-1.8-17.9-1.3-21-1c-3,0.3-11.2,1.2-21,5c-11.5,4.4-19,10.4-21,12c-7.4,6.1-11.6,11.9-16,18
				c-3.7,5.1-8.1,12.2-12,21c-3.1,7.1-5,13.2-6,17c-1.8,6.7-2.6,12-3,15c-0.5,3.6-0.8,6.6-1,9c-1.7,0.3-4.1,0.9-7,2
				c-1.1,0.4-3.3,1.3-10,5c-1.8,1-4.2,2.3-7,4v24c1.4-0.8,3.4-1.9,6-3c2.4-1,6.1-2.5,11-3c1.7-0.2,4.1-0.3,7,0c0.1,2.9,0.4,6.7,1,11
				c0.3,2,0.8,5.2,2,10c1,3.9,2.8,11.3,6,19c4.5,10.6,10,17.9,14,23c7.5,9.6,16.3,20.9,32,29c10,5.1,18.7,6.8,25,8
				c14.9,2.8,26.6,1.7,33,1c4.9-0.5,9.7-1,16-3c8.2-2.6,14-6.1,17-8c6.2-3.9,10.4-7.6,13-10c1.4-1.3,6.1-5.6,12-13
				c4.6-5.7,10.4-14,16-25C1344,276.6,1342.4,270.9,1340.7,265.3z M1214.7,172.3c1.8-8,5.3-19.5,13-29c1.7-2.2,3.8-4.4,7-6
				c7.5-3.8,15.3-1.5,17-1c10.4,3.3,15.1,13,17,17c0.5,1.1,1.3,3,2,5c1.7,4.7,2.4,8.3,3,11c0.8,4.1,0.5,3.6,2,16c0.7,6,1,7.4,0,9
				c-2.2,3.6-7.8,3.9-10,4c-9.9,0.6-28.4,2.8-54,6C1211.2,190.7,1213,179.7,1214.7,172.3z"/></g></g><path class="st2" d="M1322.7,236.3c0.7,0.7,1.8,1.7,3,3c2.1,2.4,3.6,4.6,5,7c5.6,9.8,9,18,9,18c3,7.4,3.8,10,9,24
		c2.2,6,3.9,10.5,6,16c4.9,12.9,6.9,18.1,10,27c1.3,3.8,2.3,7,3,9c2.3,0,4.7,0,7,0c6-17.3,12-34.7,18-52c6.7,17.3,13.3,34.7,20,52
		c2,0,4,0,6,0c9.7-30,20.3-60.3,32-91c1.7-4.4,3.3-8.7,5-13c-8.7,0-17.3,0-26,0c0.3,0.5,0.6,1.2,1,2c1.1,2.5,1.6,4.6,2,6
		c0.3,1.2,0.7,3.3,1,6c0.2,1.7,0.4,4.5,0,8c-0.3,2.2-0.8,4.2-2,8c-1,3.2-1.6,4.8-3,9c-1.6,4.7-1.7,5.2-3,9c-1.1,3.4-2.8,8.1-5,14
		c-4.7-16-9.3-32-14-48c0-0.2,0-0.6,0-1c0.3-2.6,2.8-4.2,4-5c2.9-1.9,6.5-4.6,11-8c-17,0-34,0-51,0c1.7,2.7,3.3,5.3,5,8
		c3.7,9,7.3,18,11,27c-3.3,9.7-6.7,19.3-10,29c-5-16.3-10-32.7-15-49c-0.1-0.8-0.1-1.8,0-3c0.1-0.6,0.3-2.2,1-4c0.4-1,0.8-1.6,3-5
		c0.8-1.2,1.5-2.2,2-3C1352.7,236.3,1337.7,236.3,1322.7,236.3z"/><path class="st2" d="M1451.7,249.3c1.7-4.3,3.3-8.7,5-13c10,0,20,0,30,0c3.2-0.3,5.8-1.1,8-2c15.5-6.4,20.2-24.5,21-28
		c4,0,8,0,12,0c0,9.7,0,19.3,0,29c0.3,0.3,0.7,0.7,1,1c2.2-0.2,4.5-0.5,7-1c10.5-2.2,18.6-6.9,24-11c0-8,0-16,0-24
		c-0.2-0.5-0.5-1.2-1-2c-2.7-4.4-7.1-5.2-7-6c0.1-1,7.7-1.6,32-1c0.4,0.1,0.7,0.1,1,0c5.2-1.1,7.4-19.7,4-35c-1.4-6.2-4-12-4-12
		c-0.4-1-1-2.4-2-4c-10.2-17.2-34-18.9-35-19c-25.5-1.5-41.8,20.4-43,22c0-0.5-0.1-1.2,0-2c1-14,22.9-22.2,25-23c2.9-1,14-4.8,28-2
		c10.3,2.1,17.1,6.7,19,8c2.6,1.9,10.7,7.9,16,19c4.1,8.7,4.6,16.1,5,23c0.6,10.5-1,18.5-2,23c-1.1,4.9-2.4,10.9-6,18
		c-2.7,5.3-5.7,9.3-8,12c0,13,0,26,0,39c0,0.3,0,0.7,0,1c1.9-3.3,3.6-6,5-8c1.3-1.8,1.9-2.8,3-4c1.3-1.5,3.5-4,7-6
		c4.6-2.6,8.9-2.9,11-3c4.7-0.3,8.2,0.8,9,1c0,0,4.9,1.5,9,5c9.5,8.1,9,23.9,9,25c0,19,0,38,0,57c0.4,1.7,1.2,4.3,3,7
		c2.7,4,6.2,6.1,8,7c-14.3,0-28.7,0-43,0c-0.7,0-1.3,0-2,0c1.5-0.6,3.3-1.5,5-3c5.3-4.6,5.9-11.2,6-13c0-15.7,0-31.3,0-47
		c0.1-1,0.1-2.3,0-4c-0.1-1.9-0.4-5.2-2-9c-1.1-2.6-1.9-4.5-4-6c-2.5-1.8-5.1-2-6-2c-3.4-0.1-5.9,1.3-7,2c-3.5,2.1-5.1,5.2-6,7
		c-0.8,1.6-1.2,3.1-2,6c-1,3.6-1.6,6.9-2,10c-0.5,3.8-0.8,7.2-1,11c-0.4,7.3-0.1,10.9,0,21c0,3,0.1,7.5,0,13c-0.1,0.7-0.1,1.4,0,2
		c0.7,6.8,8,11,10,12c-14,0-28,0-42,0c1.2-0.7,2.6-1.6,4-3c3.3-3.3,4.5-7,5-9c0.7-9.3,1-16.7,1-22c0-0.7,0-0.4,0-14
		c0-4.7,0-9.3,0-14c0-5.3,0-10.7,0-16c0-7.3,0-14.7,0-22c-1,0.7-2,1.4-3,2c-10,6.2-20.5,7.9-29,8c0,21,0,42,0,63c0,0.9,0.2,2.4,1,4
		c0.4,0.8,1.6,3.3,4,4c2.1,0.6,4.1-0.5,5-1c6.7-3.7,14.3-24.1,15-26c-0.7,8.7-1.3,17.3-2,26c-0.2,0.7-0.5,1.8-1,3
		c-1.2,3.1-4.5,11.6-13,16c-1.9,1-8.7,4.4-17,2c-7.2-2.1-11.8-7.5-14-12c-1.5-3.1-1.9-5.8-2-7c-1.7-14.7-0.1-68.1,0-72
		c-6.3,0-12.7,0-19,0c0,30.3,0,60.7,0,91c-0.8,0.4-1.8,1.1-3,2c-2.6,2-4.2,4-5,5c-3.7,4.7-6.2,11.1-7,13c-2.5,6.4-4.4,12.7-6,19
		c-1,3.9-2.1,9-3,15c0-45.3,0-90.7,0-136c-0.1-1.1-0.3-2.5-1-4C1457.5,250.7,1452.5,249.5,1451.7,249.3z"/><g><g><path d="M968.7,398.3l-15,15c-1.1,2.7-2.8,6.5-5,11c-4.8,9.7-18.4,36.8-45,60c-17.4,15.2-18.7,9.8-43,30
				c-10.3,8.5-15.3,13.8-29,24c-2.3,1.7-12.6,9.3-27,18c-19,11.5-28.3,14.8-32,16c-6.2,2.1-10.2,3.4-16,4c-4.8,0.5-23.3,2.4-36-9
				c-6.1-5.5-8.2-11.8-11-20c-3-8.8-6.9-24.7-4-46c33.3-1.3,66.7-2.7,100-4c0.9,0.3,2.8,0.6,5,0c3.9-1.1,5.7-4.4,6-5
				c0.2-6.9,0-14.6-1-23c-1.6-12.7-3.8-30.8-15-49c-4.2-6.8-9.5-15.6-20-23c-21.7-15.4-46.4-11.8-52-11c-22.8,3.3-37.4,16-43,21
				c-30.5,27.2-31.9,66.6-32,75c-2.5,0.7-5.6,1.6-9,3c-19.3,7.9-38.9,25.4-44,48c-0.6,2.7-0.9,4.9-1,6c2.4-2.4,6.2-6,11-10
				c9.1-7.5,16-13,26-16c3.5-1,8.9-2.2,16-2c0.2,4.5,0.7,10.3,2,17c0.7,3.5,2.5,11.9,7,23c4.9,12,9.9,24.2,21,36
				c1.2,1.3,12.7,13.2,29,20c37.7,15.8,75.9-5.1,85-10c2.8-1.5,7.5-4.7,17-11c9.4-6.3,31.1-21.1,58-43c11-9,23.9-19.5,40-35
				c6.4-6.1,12.3-12,15-15c22.1-23.9,35.9-55.4,44-79C970,408.9,969.4,403.6,968.7,398.3z M711.7,436.3c1.2-4.6,3.1-11.1,8-18
				c2.4-3.4,4.8-6.8,9-9c7.1-3.8,16.4-3.3,23,1c3.7,2.4,5.6,5.3,8,9c3.7,5.6,5.5,11.1,7,17c1.8,7.1,3.8,17.9,4,32
				c-21.7,2.3-43.3,4.7-65,7C706.3,465.4,707.9,451,711.7,436.3z"/></g><g><path class="st4" d="M968.7,398.3l-15,15c-1.1,2.7-2.8,6.5-5,11c-4.8,9.7-18.4,36.8-45,60c-17.4,15.2-18.7,9.8-43,30
				c-10.3,8.5-15.3,13.8-29,24c-2.3,1.7-12.6,9.3-27,18c-19,11.5-28.3,14.8-32,16c-6.2,2.1-10.2,3.4-16,4c-4.8,0.5-23.3,2.4-36-9
				c-6.1-5.5-8.2-11.8-11-20c-3-8.8-6.9-24.7-4-46c33.3-1.3,66.7-2.7,100-4c0.9,0.3,2.8,0.6,5,0c3.9-1.1,5.7-4.4,6-5
				c0.2-6.9,0-14.6-1-23c-1.6-12.7-3.8-30.8-15-49c-4.2-6.8-9.5-15.6-20-23c-21.7-15.4-46.4-11.8-52-11c-22.8,3.3-37.4,16-43,21
				c-30.5,27.2-31.9,66.6-32,75c-2.5,0.7-5.6,1.6-9,3c-19.3,7.9-38.9,25.4-44,48c-0.6,2.7-0.9,4.9-1,6c2.4-2.4,6.2-6,11-10
				c9.1-7.5,16-13,26-16c3.5-1,8.9-2.2,16-2c0.2,4.5,0.7,10.3,2,17c0.7,3.5,2.5,11.9,7,23c4.9,12,9.9,24.2,21,36
				c1.2,1.3,12.7,13.2,29,20c37.7,15.8,75.9-5.1,85-10c2.8-1.5,7.5-4.7,17-11c9.4-6.3,31.1-21.1,58-43c11-9,23.9-19.5,40-35
				c6.4-6.1,12.3-12,15-15c22.1-23.9,35.9-55.4,44-79C970,408.9,969.4,403.6,968.7,398.3z M711.7,436.3c1.2-4.6,3.1-11.1,8-18
				c2.4-3.4,4.8-6.8,9-9c7.1-3.8,16.4-3.3,23,1c3.7,2.4,5.6,5.3,8,9c3.7,5.6,5.5,11.1,7,17c1.8,7.1,3.8,17.9,4,32
				c-21.7,2.3-43.3,4.7-65,7C706.3,465.4,707.9,451,711.7,436.3z"/></g></g><path class="st2" d="M798.7,387.3c4,3.7,8,7.3,12,11c3.4,5.3,6.7,10.9,10,17c8,14.9,13.8,29.2,18,42c4.3,12,15.7,44,20,56
		c10.3,28.8,23.7,66.2,34,95c6,0,12,0,18,0c10.9-32.4,19.8-58.6,26-77c5.6-16.5,10-29.3,15-44c7.5-21.9,13.8-39.9,18-52
		c1.6-3.4,4-8.2,7-14c4-7.6,6.1-11.7,9-16c3.1-4.7,8.1-11.2,16-18c-26.7,0-53.3,0-80,0c4.8,0.6,8.5,1.9,11,3c2.7,1.2,10.4,4.7,16,13
		c2.1,3.1,3.3,6,4,8c-11.7,37-23.3,74-35,111c-13.3-36.3-26.7-72.7-40-109c0.2-1.3,0.6-2.6,1-4c3.7-11.7,13.3-18.6,19-22
		C864.7,387.3,831.7,387.3,798.7,387.3z"/><g><g><path d="M1319.7,418.3c-0.4-1.9-4.7-20-18-29c-18.1-12.2-50.2-5.8-74,20v-23c-26.7,0.3-53.3,0.7-80,1c3.5,0.3,9.9,1.4,16,6
				c13.5,10.3,12.1,28.5,12,30c0.3,15.3,0.7,30.7,1,46c-3.4,8.1-8.3,19.1-15,32c-3.9,7.5-7.5,14.4-13,23c-7.8,12.2-13.6,21.3-24,31
				c-14.7,13.7-28.1,18.7-32,20c-11,3.8-17.1,3.2-19,3c-10.6-1.2-17.6-7.2-21-10c-14.1-11.8-21.4-37.3-19-67
				c34.3-1.7,68.7-3.3,103-5c0.8-0.2,1.8-0.4,3-1c0,0,1.6-0.8,3-2c6.3-5.6-1-36-1-36c-3.2-13.1-4.8-19.7-7-25c-3.6-8.5-9-21.3-22-32
				c-2.8-2.3-15-12-34-15c-24.5-3.8-44.1,6.3-53,12c-16.9,10.9-24.7,25.3-30,35c-10.8,19.8-13.3,38.4-14,49c-2.1,0.9-5.2,2.3-9,4
				c-12.7,5.9-15.9,8.1-17,9c-2.3,1.8-5.6,4.6-9,9c-3,9.3-6,18.7-9,28c1.2-1.7,2.5-3.4,4-5c12.7-13.7,31.1-15.7,40-16
				c-0.1,2.2-0.2,5.3,0,9c0.8,15.7,6.5,43.5,30,65c4,3.6,27.8,24.7,63,24c19-0.4,32.7-6.9,41-11c36-17.6,53.9-49.2,61-64v43
				c-0.3,2.7-0.9,5.8-2,9c-4.9,13.6-16.4,20.6-21,23c34.7,0.3,69.3,0.7,104,1c-1.9-1.2-4.7-2.9-8-5c-3.1-2-7-4.5-9-6
				c-3.3-2.5-8.1-7.1-12-16c-0.3-2-0.7-4-1-6v-125c2.1-3.3,5.1-8.2,9-14c5-7.4,7.4-11.1,10-14c5-5.6,11.3-12.7,21-14
				c4.7-0.6,8.6,0.2,11,1c-1.7,0.6-4.4,1.8-7,4c-13.2,10.8-9.4,32.1-9,34c0.8,4.3,2.1,11.1,8,17c1.6,1.6,7.6,7.4,17,8
				c11.7,0.7,19.4-7.4,21-9c1-1,4-4.3,7-12C1318.3,445.6,1323.1,433.5,1319.7,418.3z M1038.7,440.3c0.5-2.4,2.1-9.1,6-17
				c4.2-8.4,7.6-11,9-12c4.4-3,8.8-3.8,11-4c6.8-0.7,12,1.9,14,3c9.7,5.1,13.1,15.4,15,21c0.3,1,1.2,5.3,3,14c1,4.7,1.8,9.2,2,15
				c0.1,1.8,0.1,3.3,0,4c-1.4,9.5-52.4,10.8-65,11C1034.8,460,1036.9,448.2,1038.7,440.3z"/></g><g><path class="st4" d="M1319.7,418.3c-0.4-1.9-4.7-20-18-29c-18.1-12.2-50.2-5.8-74,20v-23c-26.7,0.3-53.3,0.7-80,1
				c3.5,0.3,9.9,1.4,16,6c13.5,10.3,12.1,28.5,12,30c0.3,15.3,0.7,30.7,1,46c-3.4,8.1-8.3,19.1-15,32c-3.9,7.5-7.5,14.4-13,23
				c-7.8,12.2-13.6,21.3-24,31c-14.7,13.7-28.1,18.7-32,20c-11,3.8-17.1,3.2-19,3c-10.6-1.2-17.6-7.2-21-10
				c-14.1-11.8-21.4-37.3-19-67c34.3-1.7,68.7-3.3,103-5c0.8-0.2,1.8-0.4,3-1c0,0,1.6-0.8,3-2c6.3-5.6-1-36-1-36
				c-3.2-13.1-4.8-19.7-7-25c-3.6-8.5-9-21.3-22-32c-2.8-2.3-15-12-34-15c-24.5-3.8-44.1,6.3-53,12c-16.9,10.9-24.7,25.3-30,35
				c-10.8,19.8-13.3,38.4-14,49c-2.1,0.9-5.2,2.3-9,4c-12.7,5.9-15.9,8.1-17,9c-2.3,1.8-5.6,4.6-9,9c-3,9.3-6,18.7-9,28
				c1.2-1.7,2.5-3.4,4-5c12.7-13.7,31.1-15.7,40-16c-0.1,2.2-0.2,5.3,0,9c0.8,15.7,6.5,43.5,30,65c4,3.6,27.8,24.7,63,24
				c19-0.4,32.7-6.9,41-11c36-17.6,53.9-49.2,61-64v43c-0.3,2.7-0.9,5.8-2,9c-4.9,13.6-16.4,20.6-21,23c34.7,0.3,69.3,0.7,104,1
				c-1.9-1.2-4.7-2.9-8-5c-3.1-2-7-4.5-9-6c-3.3-2.5-8.1-7.1-12-16c-0.3-2-0.7-4-1-6v-125c2.1-3.3,5.1-8.2,9-14
				c5-7.4,7.4-11.1,10-14c5-5.6,11.3-12.7,21-14c4.7-0.6,8.6,0.2,11,1c-1.7,0.6-4.4,1.8-7,4c-13.2,10.8-9.4,32.1-9,34
				c0.8,4.3,2.1,11.1,8,17c1.6,1.6,7.6,7.4,17,8c11.7,0.7,19.4-7.4,21-9c1-1,4-4.3,7-12C1318.3,445.6,1323.1,433.5,1319.7,418.3z
				 M1038.7,440.3c0.5-2.4,2.1-9.1,6-17c4.2-8.4,7.6-11,9-12c4.4-3,8.8-3.8,11-4c6.8-0.7,12,1.9,14,3c9.7,5.1,13.1,15.4,15,21
				c0.3,1,1.2,5.3,3,14c1,4.7,1.8,9.2,2,15c0.1,1.8,0.1,3.3,0,4c-1.4,9.5-52.4,10.8-65,11C1034.8,460,1036.9,448.2,1038.7,440.3z"/></g></g><path class="st2" d="M1448.7,479.3c0-30.3,0-60.7,0-91c-1.9,2.6-3.7,4.6-5,6c-2.7,2.8-5.5,5.8-10,8c-2,1-3.7,1.8-6,2
		c-3.8,0.3-6.8-1.3-8-2c0,0-2-1.1-18-8c-9.5-4.1-18.2-4-23-4c-4.1,0-13.4,0.2-24,5c-9.6,4.4-15.5,10.4-20,15c-1.4,1.4-6.9,7.2-11,14
		c-9.9,16.4-12.5,40-5,61c2.1,5.8,7.8,21.9,23,32c7.1,4.8,15.2,7.4,23,10c9.8,3.2,12.2,2.8,25,7c14.4,4.7,18.3,7.5,21,10
		c2.3,2.1,7,6.6,9,14c0.7,2.4,2.5,9.5-1,17c-2.6,5.6-6.8,8.5-9,10c-5.5,3.7-10.8,4.5-15,5c-2.3,0.3-10.6,1.2-21-2
		c-2.2-0.7-10.7-3.4-21-12c-3.2-2.7-10.4-9.1-22-28c-5.2-8.4-11.7-20.2-18-35c0,34,0,68,0,102c2.9-4,5.7-6.9,8-9c4.7-4.3,8-7.4,13-8
		c3.8-0.5,7.3,1,10,2s4.3,2,6,3c5.8,3.3,10.9,4.8,15,6c7.8,2.3,14.2,2.8,18,3c5.1,0.3,11.6,0.7,20-1c10.4-2.1,18-6.4,22-9
		c2.2-1.4,9.9-6.6,17-16c8.2-10.8,11.1-21.2,12-25c1.5-6.2,1.7-11,2-19c0.4-9.5-0.4-15.5-1-19c-0.1-0.8-0.5-2.8-1-5
		c0,0-2.8-12.2-9-22c-6.4-10.2-19-14.6-44-23c-19.4-6.5-23.4-5.9-32-12c-6-4.3-18.7-13.3-18-26c0.7-13.2,15.2-20.6,16-21
		c10.5-5.2,21-2.4,26-1c18,5.1,28.3,19.7,39,35C1436.5,455.1,1443,465.5,1448.7,479.3z"/><g><g><path d="M1630.7,562.3c-7.5,6-15.8,12.1-28,16c-5.3,1.7-15.2,4.7-28,3c-4.9-0.7-23.5-3.1-34-18c-2-2.9-3-5.2-5-10
				c-5.7-13.7-6.5-25.9-7-34c-0.2-3.7-0.3-8.8,0-15c56.7-2.5,98.1-4.6,103-5c1.8-0.1,5.2-0.6,7-3c0.6-0.8,0.9-1.5,1-2
				c0.4-6.8,0.5-16.1-1-27c-1-7.3-3.3-22.2-12-39c-5.1-9.8-10.1-19.5-21-28c-15.3-12-31.7-13.6-37-14c-22.4-1.9-38.9,7.4-45,11
				c0,0-24.3,14.2-36,42c-2.6,6.2-4.4,13.4-8,28c-0.7,2.9-1.8,7.7-2,14c0,1.3,0,2.3,0,3c-7.9,1.5-18.2,4.9-27,13c-1.1,1-2.1,2-3,3
				c2.3,6,4.7,12,7,18c7.3-2,14.7-4,22-6c0.2,10.5,2,35.5,19,60c4.2,6,22.9,33,54,40c13.7,3.1,29.6,2.2,34,2c8.8-0.5,14.6-0.8,22-3
				c17.1-5.1,27.9-15.9,35-23c9.3-9.3,14.7-18.1,19-25c5.7-9.2,9.2-16.9,11-21c4.7-10.5,6.5-17.2,7-19c1-3.6,1.6-6.7,2-9
				C1659.7,537.6,1642.2,553,1630.7,562.3z M1539.7,427.3c1.1-3.4,2.9-8.8,8-13c5-4.1,10.7-4.8,13-5c7.6-0.5,13,2.8,15,4
				c7.5,4.6,10.1,12.3,13,20c1.6,4.5,2.4,8,3,11c1.8,8.7,2.2,16.6,2,23c-0.4,0.6-1.1,1.3-2,2c-2.5,1.8-5.2,1.9-6,2
				c-3.9,0.3-26.2,2.7-57,6C1529.5,472.5,1533.8,446,1539.7,427.3z"/></g><g><path class="st4" d="M1630.7,562.3c-7.5,6-15.8,12.1-28,16c-5.3,1.7-15.2,4.7-28,3c-4.9-0.7-23.5-3.1-34-18c-2-2.9-3-5.2-5-10
				c-5.7-13.7-6.5-25.9-7-34c-0.2-3.7-0.3-8.8,0-15c56.7-2.5,98.1-4.6,103-5c1.8-0.1,5.2-0.6,7-3c0.6-0.8,0.9-1.5,1-2
				c0.4-6.8,0.5-16.1-1-27c-1-7.3-3.3-22.2-12-39c-5.1-9.8-10.1-19.5-21-28c-15.3-12-31.7-13.6-37-14c-22.4-1.9-38.9,7.4-45,11
				c0,0-24.3,14.2-36,42c-2.6,6.2-4.4,13.4-8,28c-0.7,2.9-1.8,7.7-2,14c0,1.3,0,2.3,0,3c-7.9,1.5-18.2,4.9-27,13c-1.1,1-2.1,2-3,3
				c2.3,6,4.7,12,7,18c7.3-2,14.7-4,22-6c0.2,10.5,2,35.5,19,60c4.2,6,22.9,33,54,40c13.7,3.1,29.6,2.2,34,2c8.8-0.5,14.6-0.8,22-3
				c17.1-5.1,27.9-15.9,35-23c9.3-9.3,14.7-18.1,19-25c5.7-9.2,9.2-16.9,11-21c4.7-10.5,6.5-17.2,7-19c1-3.6,1.6-6.7,2-9
				C1659.7,537.6,1642.2,553,1630.7,562.3z M1539.7,427.3c1.1-3.4,2.9-8.8,8-13c5-4.1,10.7-4.8,13-5c7.6-0.5,13,2.8,15,4
				c7.5,4.6,10.1,12.3,13,20c1.6,4.5,2.4,8,3,11c1.8,8.7,2.2,16.6,2,23c-0.4,0.6-1.1,1.3-2,2c-2.5,1.8-5.2,1.9-6,2
				c-3.9,0.3-26.2,2.7-57,6C1529.5,472.5,1533.8,446,1539.7,427.3z"/></g></g><path class="st6" d="M1051.7,10.3"/></g><circle class="st2" cx="1469.6" cy="215.7" r="16.7"/></svg>